<svg xmlns="http://www.w3.org/2000/svg" xmlns:xlink="http://www.w3.org/1999/xlink" width="2000" zoomAndPan="magnify" viewBox="0 0 1500 1499.999933" height="2000" preserveAspectRatio="xMidYMid meet" version="1.0"><defs><g/><clipPath id="7af24154e6"><rect x="0" width="799" y="0" height="1181"/></clipPath><clipPath id="acea21c0e4"><path d="M 87.839844 1147.894531 L 1434.839844 1147.894531 L 1434.839844 1358.644531 L 87.839844 1358.644531 Z M 87.839844 1147.894531 " clip-rule="nonzero"/></clipPath></defs><g transform="matrix(1, 0, 0, 1, 288, 107)"><g clip-path="url(#7af24154e6)"><g fill="#ff3131" fill-opacity="1"><g transform="translate(16.875536, 892.584643)"><g><path d="M 405.640625 30.578125 C 405.640625 -0.679688 408.695312 -33.125 414.8125 -66.75 C 420.925781 -100.382812 428.738281 -134.867188 438.25 -170.203125 C 421.257812 -169.523438 402.0625 -167.828125 380.65625 -165.109375 C 359.257812 -162.390625 338.367188 -159.160156 317.984375 -155.421875 C 297.597656 -151.691406 280.441406 -148.296875 266.515625 -145.234375 C 252.585938 -142.171875 244.941406 -139.625 243.578125 -137.59375 C 259.890625 -171.5625 274.671875 -200.4375 287.921875 -224.21875 C 301.171875 -248 315.4375 -267.363281 330.71875 -282.3125 C 346.007812 -297.257812 365.035156 -308.300781 387.796875 -315.4375 C 410.554688 -322.570312 439.601562 -326.140625 474.9375 -326.140625 C 490.5625 -372.335938 503.300781 -412.765625 513.15625 -447.421875 C 523.007812 -482.078125 527.9375 -502.460938 527.9375 -508.578125 C 527.9375 -509.929688 524.539062 -510.609375 517.75 -510.609375 C 488.53125 -488.867188 456.765625 -462.878906 422.453125 -432.640625 C 388.140625 -402.410156 354.164062 -366.910156 320.53125 -326.140625 C 286.894531 -285.367188 256.148438 -237.972656 228.296875 -183.953125 C 200.441406 -129.941406 177.679688 -68.285156 160.015625 1.015625 C 143.023438 1.015625 124.847656 -2.550781 105.484375 -9.6875 C 86.117188 -16.820312 67.941406 -26.84375 50.953125 -39.75 C 33.972656 -52.65625 20.21875 -67.601562 9.6875 -84.59375 C -0.84375 -101.582031 -6.109375 -119.585938 -6.109375 -138.609375 C -6.109375 -168.503906 3.226562 -200.4375 21.90625 -234.40625 C 40.59375 -268.382812 65.394531 -303.71875 96.3125 -340.40625 C 127.226562 -377.09375 161.03125 -414.289062 197.71875 -452 C 234.414062 -489.71875 271.109375 -527.09375 307.796875 -564.125 C 344.484375 -601.15625 378.285156 -637.164062 409.203125 -672.15625 C 440.117188 -707.144531 464.914062 -739.925781 483.59375 -770.5 C 502.28125 -801.082031 511.625 -828.941406 511.625 -854.078125 C 511.625 -864.265625 510.269531 -873.097656 507.5625 -880.578125 C 529.300781 -880.578125 554.773438 -876.671875 583.984375 -868.859375 C 613.203125 -861.046875 641.738281 -849.492188 669.59375 -834.203125 C 697.457031 -818.910156 720.5625 -800.5625 738.90625 -779.15625 C 757.25 -757.757812 766.421875 -733.132812 766.421875 -705.28125 C 766.421875 -686.25 761.664062 -658.726562 752.15625 -622.71875 C 742.644531 -586.707031 730.753906 -544.75 716.484375 -496.84375 C 702.210938 -448.945312 687.941406 -397.820312 673.671875 -343.46875 C 659.410156 -289.113281 647.523438 -233.738281 638.015625 -177.34375 C 628.503906 -120.945312 623.75 -66.585938 623.75 -14.265625 C 623.75 45.523438 632.238281 100.390625 649.21875 150.328125 C 666.207031 200.265625 696.445312 240.179688 739.9375 270.078125 C 732.457031 270.765625 724.976562 271.109375 717.5 271.109375 C 710.03125 271.109375 702.554688 271.109375 695.078125 271.109375 C 621.023438 271.109375 562.929688 260.578125 520.796875 239.515625 C 478.671875 218.453125 448.945312 189.742188 431.625 153.390625 C 414.300781 117.035156 405.640625 76.097656 405.640625 30.578125 Z M 405.640625 30.578125 "/></g></g></g><g fill="#ff3131" fill-opacity="1"><g transform="translate(700.752664, 892.584643)"><g/></g></g></g></g><g clip-path="url(#acea21c0e4)"><path fill="#ff3131" d="M 1434.527344 1183.613281 C 1347.886719 1227.136719 1243.078125 1276.589844 1131.75 1312 C 1060.015625 1334.820312 1003.515625 1344.28125 992.183594 1346.179688 C 867.464844 1367.074219 762.121094 1360.679688 627.613281 1330.917969 C 611.949219 1327.457031 562.777344 1315.5 515.0625 1301.28125 C 405.019531 1268.488281 287.949219 1225.300781 146.378906 1170.609375 C 120.265625 1160.519531 87.90625 1147.945312 87.90625 1147.941406 C 87.972656 1147.761719 276.429688 1205.265625 393.332031 1237.042969 C 525.972656 1273.101562 652.460938 1303.203125 773.78125 1312.8125 C 822.90625 1316.703125 908.960938 1321.203125 1009.050781 1306.78125 C 1061.265625 1299.257812 1168.789062 1282.4375 1367.710938 1208.761719 C 1395.421875 1198.496094 1396.777344 1198.117188 1434.527344 1183.613281 Z M 1434.527344 1183.613281 " fill-opacity="1" fill-rule="evenodd"/></g></svg>
