<svg version="1.2" xmlns="http://www.w3.org/2000/svg" viewBox="0 0 1849 886" width="1849" height="886"><defs><clipPath clipPathUnits="userSpaceOnUse" id="cp1"><path d="m146 47.67h1576v645.33h-1576z"/></clipPath><clipPath clipPathUnits="userSpaceOnUse" id="cp2"><path d="m180.85 599.23h1472v230h-1472z"/></clipPath></defs><style>.a{fill:#ff3131}</style><g clip-path="url(#cp1)"><path class="a" d="m385.9 555.4q0-25.8 5.1-53.6 5-27.8 12.9-56.9-14.1 0.5-31.7 2.8-17.7 2.2-34.5 5.3-16.8 3.1-28.3 5.6-11.5 2.5-12.6 4.2 13.4-28 24.4-47.6 10.9-19.7 23.5-32 12.6-12.3 31.4-18.2 18.8-5.9 48-5.9 12.8-38.2 21-66.7 8.1-28.6 8.1-33.7 0-1.1-5.6-1.1-24.1 17.9-52.4 42.9-28.3 24.9-56.1 58.6-27.8 33.6-50.8 78.2-23 44.6-37.5 101.8-14.1 0-30-5.9-16-5.9-30-16.5-14.1-10.7-22.8-24.7-8.7-14-8.7-29.7 0-24.7 15.5-52.7 15.4-28.1 40.9-58.4 25.5-30.3 55.8-61.4 30.3-31.1 60.6-61.7 30.3-30.5 55.8-59.4 25.5-28.9 40.9-54.1 15.4-25.3 15.4-46 0-8.4-2.2-14.6 17.9 0 42.1 6.5 24.1 6.4 47.1 19 23 12.6 38.1 30.3 15.1 17.7 15.1 40.7 0 15.7-7.8 45.4-7.9 29.7-19.6 69.2-11.8 39.6-23.6 84.5-11.8 44.8-19.6 91.4-7.9 46.5-7.9 89.7 0 49.3 14 90.6 14.1 41.2 50 65.9-6.2 0.5-12.4 0.5-6.1 0-12.3 0-61.1 0-95.9-17.4-34.8-17.4-49.1-47.4-14.3-30-14.3-67.5z"/><path class="a" d="m743.1 543q-24.7 0-38.7-21.8-14.1-21.9-16.8-52.8-22.5 38.2-46.6 54.2-24.1 15.9-45.4 15.9-17.4 0-31.2-8.6-13.7-8.7-21.6-22.8-7.8-14-7.8-30.2 0-19.7 8.1-45.2 8.2-25.5 20.5-53.8 12.4-28.4 24.7-56.4 12.3-28 21-52.7 8.7-24.7 9.3-42.1 16.2 0 33.3 5.4 17.1 5.3 29.2 14.8 12.1 9.6 12.1 22.5 0 11.2-6.8 27.4-6.7 16.3-16.5 34.5-9.8 18.2-19.7 36.2-9.8 17.9-16.5 33.1-6.7 15.1-6.7 24.7 0 8.4 6.1 11.7 16.3 0 30.9-10.6 14.6-10.7 27.5-25.5 12.9-14.9 21.8-26.7 9-11.8 20.5-31.9 11.5-20.2 22.7-42.7 11.2-22.4 19.1-42 7.9-19.7 9.5-30.3 7.9 0.6 19.1 3.9 11.2 3.4 22.7 9.3 11.5 5.9 19.1 13.7 7.6 7.9 7.6 17.4 0 9.5-7.1 25-7 15.4-17.6 34.2-10.7 18.7-21.3 39.2-10.7 20.5-17.7 40.4-7 19.9-7 37.3 0 20.2 13.4 20.2 7.9 0 18.5-5.9 10.7-5.9 21.1-14.3 10.4-8.4 18.8-16.3 8.4-7.8 11.8-12.3-7.3 19.6-20.3 41.2-12.9 21.6-29.4 40.4-16.5 18.8-35.3 30.6-18.8 11.7-38.4 11.7z"/><path class="a" d="m1191.6 106.7q24.7 0 38.5 10.7 13.7 10.6 13.7 28.6 0 20.7-19.6 47.1-4.5 0-9.3-0.3-4.7-0.3-9.2-0.3-49.4 0-84.7 9.6-35.3 9.5-60.3 26.3-25 16.8-42.6 38.1-17.7 21.4-30.6 45.2-12.9 23.8-24.1 47.9 0 0-7.3 14.6-7.3 14.6-18.5 39.8-11.2 25.3-23.8 57-12.7 31.6-23.3 65.3-12.9 0-29.7-3.4-16.8-3.3-29.5-13.1-12.6-9.9-12.6-28.4 0-9.5 7-28.8 7-19.4 18-44.6 10.9-25.3 23.5-53.6 12.6-28.3 23.6-56.1 10.9-27.7 17.9-51.6 7-23.8 7-39.5 0-7.3-1.6-12.3 0 0 9.8 1.9 9.8 2 22.9 7.3 13.2 5.3 23.9 15.2 10.6 9.8 12.9 25.5 28-44.9 62.8-78 34.8-33.1 72.3-51.6 37.6-18.5 72.9-18.5z"/><path class="a" d="m983.5 458.9q0-38.1 14.6-68.1 14.6-30 36.5-46.3-0.6-2.8-0.9-5.3-0.2-2.5-0.2-5.3 0-26.4 16.5-51.9 16.5-25.5 47.9-42.4 31.5-16.8 75.8-16.8 23.5 0 42.9 9 19.3 9 30.8 28.6 11.5 19.6 11.5 51 0 11.8-1.7 23.6 26.4-6.2 46.8-19.9 20.5-13.8 37.9-30.6 7.9 9.5 10.9 18.2 3.1 8.7 3.1 16.6 0 16.8-12.6 30.2-12.6 13.5-31.4 23.6-18.8 10.1-38.4 16.8-19.6 6.7-34.2 10.7-15.2 36.4-40.7 68.1-25.5 31.7-58.6 51.1-33.1 19.3-71.8 19.3-20.7 0-40.3-10.6-19.7-10.7-32-28.9-12.4-18.3-12.4-40.7zm118.4-132.3q0 17.3 14.8 26 14.9 8.7 39 8.7 2.8 0 5.6 0 2.8 0 5.1-0.5 4.5-15.2 4.5-27.5 0-15.7-11.3-25.8-11.2-10.1-22.4-10.1-14 0-24.7 10.1-10.6 10.1-10.6 19.1zm-15.7 133.4q14 0 30-14.8 16-14.9 28.9-35.6-37.6-2.8-66.2-15.2-11.8 23.6-11.8 42.1 0 10.1 4.5 16.8 4.5 6.7 14.6 6.7z"/><path class="a" d="m1606 106.7q24.7 0 38.4 10.7 13.7 10.6 13.7 28.6 0 20.7-19.6 47.1-4.5 0-9.3-0.3-4.7-0.3-9.2-0.3-49.3 0-84.7 9.6-35.3 9.5-60.3 26.3-24.9 16.8-42.6 38.1-17.7 21.4-30.5 45.2-12.9 23.8-24.2 47.9 0 0-7.3 14.6-7.2 14.6-18.5 39.8-11.2 25.3-23.8 57-12.6 31.6-23.3 65.3-12.9 0-29.7-3.4-16.8-3.3-29.4-13.1-12.7-9.9-12.7-28.4 0-9.5 7.1-28.8 7-19.4 17.9-44.6 10.9-25.3 23.5-53.6 12.7-28.3 23.6-56.1 10.9-27.7 17.9-51.6 7.1-23.8 7.1-39.5 0-7.3-1.7-12.3 0 0 9.8 1.9 9.8 2 23 7.3 13.2 5.3 23.8 15.2 10.7 9.8 12.9 25.5 28.1-44.9 62.8-78 34.8-33.1 72.4-51.6 37.6-18.5 72.9-18.5z"/><path class="a" d="m1547.1 554.3q0-15.8 1.9-32.6 2-16.8 5.4-33.1-21.3 24.7-43 36.2-21.5 11.5-41.2 11.5-29.1 0-49-23.3-19.9-23.2-19.9-63.1 0-38.1 14.5-71.8 14.6-33.6 39.3-60.5 24.7-26.9 54.7-46.6 30-19.6 61.1-30 31.1-10.4 58.6-10.4 26.4 0 42.1 11 15.7 10.9 15.7 30 0 19.6-17.4 42.6-17.4-5-33.7-5-29.7 0-54.9 13.4-25.3 13.5-43.8 33.4-18.5 19.9-28.8 39.8-10.4 19.9-10.4 32.8 0 14 11.8 14 11.2 0 25.7-11.2 14.6-11.2 29.5-29.1 14.9-18 25.5-37.6 10.7-19.6 13.5-36.5 9.5-2.8 16.8-2.8 20.2 0 34.2 13.2 14 13.2 14 29.5 0 7.3-6.1 21-6.2 13.7-14.1 31.4-7.8 17.7-14 37.3-6.2 19.6-6.2 39.2 0 24.2 9.6 33.1 9.5 9 23.5 9 10.1 0 21.9-3.3 11.8-3.4 23.5-7.9-7.8 32-24.9 54.4-17.1 22.4-37.9 34.2-20.7 11.8-40.3 11.8-23.6 0-40.4-18.3-16.8-18.2-16.8-55.7z"/></g><g clip-path="url(#cp2)"><path fill-rule="evenodd" class="a" d="m1652.9 638.3c-94.7 47.6-209.2 101.6-330.9 140.3-78.4 25-140.2 35.3-152.6 37.4-136.3 22.8-251.5 15.8-398.5-16.7-17.1-3.8-70.9-16.9-123-32.4-120.3-35.8-248.3-83.1-403.1-142.8-28.5-11.1-63.9-24.8-63.9-24.8 0.1-0.2 206.1 62.6 333.9 97.4 145 39.4 283.3 72.3 415.9 82.8 53.7 4.3 147.7 9.2 257.1-6.6 57.1-8.2 174.7-26.6 392.1-107.1 30.3-11.3 31.8-11.7 73-27.5z"/></g></svg>
