<svg version="1.2" xmlns="http://www.w3.org/2000/svg" viewBox="0 0 1897 883" width="1897" height="883">
	<defs>
		<clipPath clipPathUnits="userSpaceOnUse" id="cp1">
			<path d="m34.33 11.33h1550.67v706.67h-1550.67z"/>
		</clipPath>
		<clipPath clipPathUnits="userSpaceOnUse" id="cp2">
			<path d="m278.33 510h1616v425.33h-1616z"/>
		</clipPath>
		<clipPath clipPathUnits="userSpaceOnUse" id="cp3">
			<path d="m278.93 686.79l1587.24-176.32 27.6 248.47-1587.24 176.32z"/>
		</clipPath>
		<clipPath clipPathUnits="userSpaceOnUse" id="cp4">
			<path d="m278.33 510h1616v425.33h-1616z"/>
		</clipPath>
		<clipPath clipPathUnits="userSpaceOnUse" id="cp5">
			<path d="m283.67 510.21h1584v354.46h-1584z"/>
		</clipPath>
		<clipPath clipPathUnits="userSpaceOnUse" id="cp6">
			<path d="m278.93 686.79l1587.24-176.32 27.6 248.47-1587.24 176.32z"/>
		</clipPath>
		<clipPath clipPathUnits="userSpaceOnUse" id="cp7">
			<path d="m1866.51 510.43l-1587.23 176.31 27.6 248.48 1587.23-176.32z"/>
		</clipPath>
		<clipPath clipPathUnits="userSpaceOnUse" id="cp8">
			<path d="m1866.51 510.43l-1587.23 176.31 27.6 248.48 1587.23-176.32z"/>
		</clipPath>
	</defs>
	<style>
		.s0 { fill: #ff3131 } 
	</style>
	<g>
		<g id="Clip-Path" clip-path="url(#cp1)">
			<g>
				<g>
					<g>
						<g>
							<path class="s0" d="m287.83 563.91q0-27.98 5.46-58.11 5.47-30.12 14-61.77-15.21 0.61-34.38 3.05-19.17 2.43-37.44 5.79-18.25 3.33-30.72 6.08-12.47 2.73-13.69 4.56 14.6-30.43 26.46-51.73 11.87-21.31 25.56-34.68 13.7-13.4 34.08-19.77 20.39-6.4 52.04-6.4 14-41.37 22.82-72.42 8.83-31.03 8.83-36.52 0-1.2-6.08-1.21-26.17 19.49-56.92 46.57-30.73 27.06-60.85 63.58-30.11 36.5-55.07 84.9-24.96 48.37-40.77 110.43-15.21 0-32.56-6.37-17.34-6.4-32.56-17.96-15.21-11.56-24.65-26.77-9.41-15.23-9.42-32.27 0-26.77 16.73-57.19 16.73-30.43 44.42-63.29 27.69-32.85 60.54-66.63 32.87-33.78 65.73-66.95 32.88-33.17 60.56-64.5 27.69-31.34 44.42-58.71 16.73-27.39 16.73-49.92 0-9.12-2.42-15.81 19.46 0 45.63 7 26.16 6.98 51.12 20.69 24.96 13.68 41.38 32.85 16.44 19.17 16.44 44.12-0.01 17.05-8.53 49.3-8.52 32.25-21.31 75.14-12.77 42.9-25.56 91.59-12.77 48.69-21.29 99.2-8.5 50.51-8.5 97.36 0 53.56 15.21 98.27 15.2 44.72 54.14 71.52-6.69 0.6-13.37 0.6-6.69 0-13.4 0-66.33 0-104.06-18.87-37.74-18.86-53.25-51.42-15.5-32.56-15.5-73.33z"/>
						</g>
					</g>
				</g>
				<g>
					<g>
						<g>
							<path class="s0" d="m781.96 360.05q-16.42 32.25-33.77 71.5-17.34 39.25-38.34 78.82-21 39.54-47.16 72.39-26.18 32.88-59.34 52.96-33.17 20.08-75.14 20.08-29.22 0-52.05-17.04-22.81-17.04-35.58-43.21-12.79-26.17-12.79-54.14 0-6.71 0.92-13.08 0.92-6.4 2.12-12.48 20.08 29.2 46.25 46.85 26.16 17.64 52.94 17.65 30.44 0 58.12-25.88 27.69-25.85 45.94-86.71-31.65 35.3-60.56 51.42-28.9 16.12-52.02 16.12-14.61 0-29.21-9.12-14.61-9.12-24.35-25.85-9.74-16.73-9.73-39.25-0.01-28 14.29-61.78 14.31-33.76 38.04-67.22 23.75-33.48 52.33-61.17 28.6-27.69 56.9-44.73 28.31-17.04 52.04-17.04 17.64 0 31.04 11.87 13.39 11.86 19.48 38.63 3.04-0.6 8.21-9.13 5.16-8.51 9.12-19.16 3.96-10.64 3.96-18.57 0-2.43-1.21-6.08 35.89 3.65 59.32 15.21 23.43 11.56 23.43 43.21 0 7.92-12.79 34.39-12.77 26.47-30.41 60.54zm-107.71 7.92q0 0 7-11.25 7-11.27 15.21-27.39 8.22-16.13 12.48-30.73-18.88 0-38.96 10.35-20.07 10.34-38.63 26.77-18.56 16.42-33.48 34.69-14.9 18.25-23.73 34.08-8.83 15.82-8.83 24.34 0 7.89 7.31 7.89 16.44 0 33.77-10.33 17.35-10.35 34.69-26.48 17.35-16.13 33.17-31.94z"/>
						</g>
					</g>
				</g>
				<g>
					<g>
						<g>
							<path class="s0" d="m789.26 459.24q0-41.37 15.81-73.94 15.83-32.56 39.56-50.2-0.6-3.04-0.91-5.77-0.3-2.75-0.29-5.8 0-28.6 17.93-56.29 17.96-27.69 52.04-45.94 34.08-18.25 82.17-18.25 25.54 0.01 46.54 9.73 21 9.74 33.46 31.05 12.48 21.29 12.48 55.37 0 12.77-1.81 25.56 28.6-6.7 50.81-21.6 22.21-14.92 41.08-33.17 8.5 10.34 11.86 19.77 3.35 9.44 3.35 17.96 0 18.25-13.71 32.86-13.69 14.6-34.08 25.56-20.38 10.96-41.67 18.27-21.29 7.29-37.12 11.54-16.44 39.57-44.13 73.96-27.69 34.37-63.58 55.37-35.9 20.99-77.9 20.98-22.52 0-43.81-11.56-21.29-11.56-34.69-31.33-13.39-19.77-13.39-44.13zm128.42-143.6q0 18.85 16.12 28.29 16.12 9.44 42.29 9.44 3.04 0 6.09 0 3.04 0 5.47-0.63 4.86-16.41 4.86-29.81 0-17.04-12.17-27.98-12.17-10.96-24.33-10.96-15.21 0-26.77 10.96-11.56 10.94-11.56 20.69zm-17.05 144.83q15.21 0 32.55-16.12 17.35-16.15 31.35-38.65-40.77-3.04-71.81-16.44-12.78 25.57-12.77 45.65-0.01 10.96 4.85 18.27 4.87 7.29 15.83 7.29z"/>
						</g>
					</g>
				</g>
				<g>
					<g>
						<g>
							<path class="s0" d="m1464.74 77.08q26.79 0 41.69 11.56 14.92 11.56 14.92 31.04 0 22.52-21.32 51.12-4.85 0-10.04-0.31-5.17-0.31-10.02-0.31-53.56 0-91.89 10.35-38.34 10.36-65.42 28.61-27.09 18.25-46.25 41.37-19.17 23.13-33.17 49-14 25.86-26.16 52.02-0.01 0.01-7.92 15.84-7.92 15.81-20.08 43.21-12.17 27.37-25.86 61.77-13.69 34.37-25.25 70.87-14 0-32.27-3.64-18.25-3.65-31.94-14.3-13.68-10.66-13.68-30.75 0-10.33 7.6-31.33 7.6-21 19.46-48.37 11.87-27.4 25.56-58.13 13.7-30.73 25.56-60.85 11.88-30.13 19.48-55.98 7.61-25.85 7.61-42.9-0.01-7.91-1.84-13.39 0 0 10.65 2.14 10.66 2.13 24.96 7.92 14.31 5.77 25.87 16.41 11.56 10.65 13.98 27.69 30.44-48.68 68.17-84.58 37.73-35.92 78.5-56 40.77-20.08 79.1-20.08z"/>
						</g>
					</g>
				</g>
				<g>
					<g>
						<g>
							<path class="s0" d="m1400.85 562.7q0-17.04 2.12-35.29 2.15-18.27 5.8-35.92-23.13 26.8-46.57 39.27-23.42 12.46-44.73 12.46-31.64 0-53.25-25.25-21.58-25.25-21.58-68.46 0-41.37 15.81-77.89 15.82-36.52 42.59-65.73 26.79-29.21 59.33-50.5 32.56-21.31 66.33-32.56 33.79-11.25 63.61-11.25 28.6 0 45.64 11.87 17.04 11.86 17.05 32.54 0 21.3-18.88 46.25-18.86-5.48-36.5-5.48-32.27 0-59.65 14.61-27.37 14.61-47.45 36.21-20.09 21.6-31.36 43.2-11.25 21.61-11.25 35.61 0 15.21 12.77 15.21 12.19 0 28-12.17 15.82-12.16 31.94-31.65 16.14-19.47 27.71-40.77 11.56-21.29 14.6-39.56 10.33-3.04 18.25-3.04 21.9 0 37.11 14.31 15.23 14.3 15.23 31.94-0.01 7.92-6.71 22.83-6.69 14.9-15.21 34.06-8.52 19.17-15.21 40.48-6.69 21.3-6.69 42.59 0 26.17 10.34 35.91 10.35 9.74 25.56 9.73 10.95 0 23.73-3.64 12.79-3.65 25.56-8.52-8.52 34.68-27.08 59.02-18.57 24.35-41.09 37.12-22.5 12.79-43.79 12.79-25.56 0-43.83-19.79-18.25-19.77-18.25-60.54z"/>
						</g>
					</g>
				</g>
				<g>
					<g>
						<g>
						</g>
					</g>
				</g>
			</g>
		</g>
	</g>
	<g id="Clip-Path" clip-path="url(#cp2)">
		<g>
			<g id="Clip-Path" clip-path="url(#cp3)">
				<g>
					<g>
						<g id="Clip-Path" clip-path="url(#cp4)">
							<g>
								<g id="Clip-Path" clip-path="url(#cp5)">
									<g>
										<g id="Clip-Path" clip-path="url(#cp6)">
											<g>
												<g id="Clip-Path" clip-path="url(#cp7)">
													<g>
														<g id="Clip-Path" clip-path="url(#cp8)">
															<g>
																<path fill-rule="evenodd" class="s0" d="m283.67 728.88c107.84 39.96 237.86 84.54 373.74 111.7 87.54 17.51 155.39 21.26 169 22.02 149.76 8.3 273.1-13.04 427.76-65.73 18.01-6.14 74.41-26.67 128.8-49.68 125.43-53.07 257.78-119.3 417.5-202.32 29.47-15.31 65.97-34.37 65.97-34.38-0.11-0.2-214.74 92.27-348.38 145.04-151.64 59.87-296.81 111.92-438.57 139.14-57.4 11.01-158.25 27.59-278.13 23.69-62.54-2.03-191.49-7.78-435.63-68.58-34.01-8.47-35.66-8.74-82.06-20.9z"/>
															</g>
														</g>
													</g>
												</g>
											</g>
										</g>
									</g>
								</g>
							</g>
						</g>
					</g>
				</g>
			</g>
		</g>
	</g>
</svg>