<svg xmlns="http://www.w3.org/2000/svg" xmlns:xlink="http://www.w3.org/1999/xlink" width="2000" zoomAndPan="magnify" viewBox="0 0 1500 1499.999933" height="2000" preserveAspectRatio="xMidYMid meet" version="1.0"><defs><g/><clipPath id="f01c5a54f8"><rect x="0" width="947" y="0" height="1399"/></clipPath><clipPath id="9d2cad09d4"><path d="M 55.265625 1243.605469 L 1466.015625 1243.605469 L 1466.015625 1464.105469 L 55.265625 1464.105469 Z M 55.265625 1243.605469 " clip-rule="nonzero"/></clipPath></defs><g transform="matrix(1, 0, 0, 1, 86, 24)"><g clip-path="url(#f01c5a54f8)"><g fill="#ff3131" fill-opacity="1"><g transform="translate(20.784422, 1057.334073)"><g><path d="M 480.859375 36.25 C 480.859375 -0.800781 484.476562 -39.257812 491.71875 -79.125 C 498.96875 -119 508.234375 -159.878906 519.515625 -201.765625 C 499.378906 -200.960938 476.625 -198.945312 451.25 -195.71875 C 425.875 -192.5 401.101562 -188.671875 376.9375 -184.234375 C 352.78125 -179.804688 332.445312 -175.78125 315.9375 -172.15625 C 299.425781 -168.539062 290.363281 -165.523438 288.75 -163.109375 C 308.082031 -203.378906 325.601562 -237.609375 341.3125 -265.796875 C 357.019531 -293.984375 373.929688 -316.9375 392.046875 -334.65625 C 410.171875 -352.382812 432.722656 -365.472656 459.703125 -373.921875 C 486.691406 -382.378906 521.128906 -386.609375 563.015625 -386.609375 C 581.535156 -441.378906 596.632812 -489.300781 608.3125 -530.375 C 619.988281 -571.457031 625.828125 -595.625 625.828125 -602.875 C 625.828125 -604.488281 621.800781 -605.296875 613.75 -605.296875 C 579.113281 -579.515625 541.457031 -548.703125 500.78125 -512.859375 C 460.113281 -477.023438 419.84375 -434.941406 379.96875 -386.609375 C 340.101562 -338.285156 303.65625 -282.109375 270.625 -218.078125 C 237.601562 -154.046875 210.625 -80.953125 189.6875 1.203125 C 169.550781 1.203125 148.003906 -3.019531 125.046875 -11.46875 C 102.085938 -19.925781 80.539062 -31.804688 60.40625 -47.109375 C 40.269531 -62.421875 23.957031 -80.144531 11.46875 -100.28125 C -1.007812 -120.414062 -7.25 -141.757812 -7.25 -164.3125 C -7.25 -199.75 3.820312 -237.601562 25.96875 -277.875 C 48.125 -318.144531 77.523438 -360.023438 114.171875 -403.515625 C 150.816406 -447.015625 190.882812 -491.113281 234.375 -535.8125 C 277.875 -580.519531 321.367188 -624.820312 364.859375 -668.71875 C 408.359375 -712.613281 448.429688 -755.300781 485.078125 -796.78125 C 521.722656 -838.269531 551.117188 -877.132812 573.265625 -913.375 C 595.421875 -949.625 606.5 -982.648438 606.5 -1012.453125 C 606.5 -1024.535156 604.890625 -1035.003906 601.671875 -1043.859375 C 627.441406 -1043.859375 657.644531 -1039.226562 692.28125 -1029.96875 C 726.914062 -1020.707031 760.742188 -1007.015625 793.765625 -988.890625 C 826.785156 -970.765625 854.171875 -949.015625 875.921875 -923.640625 C 897.671875 -898.273438 908.546875 -869.082031 908.546875 -836.0625 C 908.546875 -813.5 902.90625 -780.875 891.625 -738.1875 C 880.351562 -695.5 866.257812 -645.765625 849.34375 -588.984375 C 832.425781 -532.203125 815.507812 -471.59375 798.59375 -407.15625 C 781.6875 -342.71875 767.59375 -277.070312 756.3125 -210.21875 C 745.039062 -143.363281 739.40625 -78.929688 739.40625 -16.921875 C 739.40625 53.960938 749.472656 119.003906 769.609375 178.203125 C 789.742188 237.398438 825.582031 284.722656 877.125 320.171875 C 868.269531 320.972656 859.410156 321.375 850.546875 321.375 C 841.691406 321.375 832.832031 321.375 823.96875 321.375 C 736.175781 321.375 667.3125 308.890625 617.375 283.921875 C 567.4375 258.953125 532.195312 224.921875 511.65625 181.828125 C 491.125 138.734375 480.859375 90.207031 480.859375 36.25 Z M 480.859375 36.25 "/></g></g></g><g fill="#ff3131" fill-opacity="1"><g transform="translate(831.465486, 1057.334073)"><g/></g></g></g></g><g clip-path="url(#9d2cad09d4)"><path fill="#ff3131" d="M 1466.125 1281.027344 C 1375.351562 1326.628906 1265.554688 1378.433594 1148.921875 1415.53125 C 1073.769531 1439.441406 1014.578125 1449.355469 1002.699219 1451.339844 C 872.039062 1473.230469 761.675781 1466.53125 620.761719 1435.355469 C 604.351562 1431.726562 552.835938 1419.199219 502.847656 1404.304688 C 387.5625 1369.949219 264.910156 1324.703125 116.597656 1267.40625 C 89.238281 1256.835938 55.335938 1243.664062 55.335938 1243.660156 C 55.40625 1243.46875 252.84375 1303.714844 375.316406 1337.007812 C 514.277344 1374.78125 646.792969 1406.320312 773.894531 1416.382812 C 825.359375 1420.460938 915.515625 1425.175781 1020.375 1410.066406 C 1075.078125 1402.183594 1187.722656 1384.5625 1396.125 1307.375 C 1425.15625 1296.621094 1426.578125 1296.226562 1466.125 1281.027344 Z M 1466.125 1281.027344 " fill-opacity="1" fill-rule="evenodd"/></g></svg>